<mxfile host="app.diagrams.net" modified="2020-10-19T17:51:56.766Z" agent="5.0 (X11; Linux x86_64) AppleWebKit/537.36 (KHTML, like Gecko) Chrome/86.0.4240.75 Safari/537.36" etag="XdPBRVw9T22He9A4Pa4G" version="13.8.0" type="github">
  <diagram id="PVd3wMqekF-SLOUu2L1a" name="Page-1">
    <mxGraphModel dx="1355" dy="746" grid="1" gridSize="10" guides="1" tooltips="1" connect="1" arrows="1" fold="1" page="1" pageScale="1" pageWidth="827" pageHeight="1169" math="0" shadow="0">
      <root>
        <mxCell id="0" />
        <mxCell id="1" parent="0" />
        <mxCell id="zDhF9HHTDgkuKIEXnfIk-4" style="edgeStyle=orthogonalEdgeStyle;rounded=0;orthogonalLoop=1;jettySize=auto;html=1;" edge="1" parent="1" source="zDhF9HHTDgkuKIEXnfIk-1">
          <mxGeometry relative="1" as="geometry">
            <mxPoint x="240" y="530" as="targetPoint" />
          </mxGeometry>
        </mxCell>
        <mxCell id="zDhF9HHTDgkuKIEXnfIk-1" value="" style="rounded=0;whiteSpace=wrap;html=1;" vertex="1" parent="1">
          <mxGeometry x="510" y="370" width="120" height="60" as="geometry" />
        </mxCell>
        <mxCell id="zDhF9HHTDgkuKIEXnfIk-3" style="edgeStyle=orthogonalEdgeStyle;rounded=0;orthogonalLoop=1;jettySize=auto;html=1;entryX=0.417;entryY=0;entryDx=0;entryDy=0;entryPerimeter=0;" edge="1" parent="1" source="zDhF9HHTDgkuKIEXnfIk-2" target="zDhF9HHTDgkuKIEXnfIk-1">
          <mxGeometry relative="1" as="geometry" />
        </mxCell>
        <mxCell id="zDhF9HHTDgkuKIEXnfIk-2" value="" style="rounded=1;whiteSpace=wrap;html=1;" vertex="1" parent="1">
          <mxGeometry x="350" y="170" width="120" height="60" as="geometry" />
        </mxCell>
        <mxCell id="zDhF9HHTDgkuKIEXnfIk-6" style="edgeStyle=orthogonalEdgeStyle;rounded=0;orthogonalLoop=1;jettySize=auto;html=1;exitX=0.5;exitY=0.5;exitDx=0;exitDy=0;exitPerimeter=0;" edge="1" parent="1" source="zDhF9HHTDgkuKIEXnfIk-5" target="zDhF9HHTDgkuKIEXnfIk-2">
          <mxGeometry relative="1" as="geometry" />
        </mxCell>
        <mxCell id="zDhF9HHTDgkuKIEXnfIk-5" value="Actor" style="shape=umlActor;verticalLabelPosition=bottom;verticalAlign=top;html=1;outlineConnect=0;" vertex="1" parent="1">
          <mxGeometry x="70" y="190" width="30" height="60" as="geometry" />
        </mxCell>
      </root>
    </mxGraphModel>
  </diagram>
</mxfile>
